<svg width="24" height="24" viewBox="0 0 24 24" fill="none" xmlns="http://www.w3.org/2000/svg">
<path d="M4.15287 7.58967C4.15287 9.48551 5.69481 11.0275 7.59065 11.0275C9.48648 11.0275 11.0284 9.48551 11.0284 7.58967C11.0284 5.69384 9.48648 4.1519 7.59065 4.1519C5.69481 4.1519 4.15287 5.69384 4.15287 7.58967ZM9.08301 7.58967C9.08301 8.41315 8.41315 9.08301 7.58967 9.08301C6.7662 9.08301 6.09634 8.41315 6.09634 7.58967C6.09634 6.7662 6.7662 6.09634 7.58967 6.09634C8.41315 6.09634 9.08301 6.7662 9.08301 7.58967ZM18.4834 15.6611C18.882 16.0208 18.9141 16.6352 18.5544 17.0338C18.1956 17.4334 17.5812 17.4645 17.1816 17.1048L12.8669 13.2159C12.4615 12.8581 11.8363 12.8523 11.4183 13.2072C10.9555 13.5834 10.8952 14.3252 11.2909 14.7725L15.1983 20.4211C15.6494 21.0734 15.8876 21.8386 15.8876 22.6309C15.8876 23.1676 15.452 23.6343 14.9154 23.6343C14.3787 23.6343 13.9431 23.2298 13.9431 22.6931C13.9431 22.2333 13.8236 21.8512 13.599 21.5255L12.0794 19.3263C11.4465 19.617 10.7572 19.7765 10.0543 19.7765H5.19412C2.5137 19.7765 0.333008 17.5958 0.333008 14.9154V7.62467C0.333008 3.60356 3.60356 0.333008 7.62467 0.333008C11.6458 0.333008 14.9163 3.60356 14.9163 7.62467V8.5969C14.9163 9.13356 14.4808 9.56912 13.9441 9.56912C13.4075 9.56912 12.9719 9.13356 12.9719 8.5969V7.62467C12.9719 4.67592 10.5734 2.27745 7.62467 2.27745C4.67592 2.27745 2.27745 4.67592 2.27745 7.62467V14.9163C2.27745 16.5244 3.58606 17.833 5.19412 17.833H10.0552C10.3595 17.833 10.6551 17.7718 10.9419 17.6794L9.75093 15.9547C8.7194 14.7481 8.8769 12.8154 10.1602 11.7255C11.3123 10.7475 13.0322 10.7659 14.1629 11.7663L18.4834 15.6611ZM23.6663 16.5963V22.6941C23.6663 23.2308 23.2308 23.6663 22.6941 23.6663C22.1575 23.6663 21.7219 23.2308 21.7219 22.6941V16.5963C21.7219 14.5187 20.913 12.5655 19.444 11.0965L17.1456 8.79815C16.7655 8.41801 16.7655 7.80356 17.1456 7.42343C17.5258 7.04329 18.1402 7.04329 18.5204 7.42343L20.8187 9.72176C22.6552 11.5583 23.6663 13.9995 23.6663 16.5963Z" fill="#A5A5A5"/>
</svg>
