<svg width="22" height="22" viewBox="0 0 22 22" fill="none" xmlns="http://www.w3.org/2000/svg">
<path d="M0.5 11C0.5 11.6444 1.02234 12.1667 1.66667 12.1667H8.66667C9.31102 12.1667 9.83333 11.6444 9.83333 11V1.66667C9.83333 1.02234 9.31102 0.5 8.66667 0.5H1.66667C1.02234 0.5 0.5 1.02234 0.5 1.66667V11ZM0.5 20.3333C0.5 20.9777 1.02234 21.5 1.66667 21.5H8.66667C9.31102 21.5 9.83333 20.9777 9.83333 20.3333V15.6667C9.83333 15.0223 9.31102 14.5 8.66667 14.5H1.66667C1.02234 14.5 0.5 15.0223 0.5 15.6667V20.3333ZM12.1667 20.3333C12.1667 20.9777 12.689 21.5 13.3333 21.5H20.3333C20.9777 21.5 21.5 20.9777 21.5 20.3333V11C21.5 10.3556 20.9777 9.83333 20.3333 9.83333H13.3333C12.689 9.83333 12.1667 10.3556 12.1667 11V20.3333ZM13.3333 0.5C12.689 0.5 12.1667 1.02234 12.1667 1.66667V6.33333C12.1667 6.97766 12.689 7.5 13.3333 7.5H20.3333C20.9777 7.5 21.5 6.97766 21.5 6.33333V1.66667C21.5 1.02234 20.9777 0.5 20.3333 0.5H13.3333Z" fill="white"/>
</svg>
