<svg width="24" height="22" viewBox="0 0 24 22" fill="none" xmlns="http://www.w3.org/2000/svg">
<path d="M7.91634 5.16667C7.91634 6.45533 6.87167 7.5 5.58301 7.5C4.29434 7.5 3.24967 6.45533 3.24967 5.16667C3.24967 3.878 4.29434 2.83333 5.58301 2.83333C6.87167 2.83333 7.91634 3.878 7.91634 5.16667ZM0.916341 5.16667C0.916341 7.744 3.00568 9.83333 5.58301 9.83333C8.16034 9.83333 10.2497 7.744 10.2497 5.16667C10.2497 2.58934 8.16034 0.5 5.58301 0.5C3.00568 0.5 0.916341 2.58934 0.916341 5.16667ZM8.49967 16.25C8.49967 14.6392 7.19384 13.3333 5.58301 13.3333C3.97218 13.3333 2.66634 14.6392 2.66634 16.25V19.1667H8.49967V16.25ZM10.833 21.5H0.333008V16.25C0.333008 13.3505 2.68351 11 5.58301 11C8.4825 11 10.833 13.3505 10.833 16.25V21.5ZM20.7497 5.16667C20.7497 6.45533 19.705 7.5 18.4163 7.5C17.1276 7.5 16.083 6.45533 16.083 5.16667C16.083 3.878 17.1276 2.83333 18.4163 2.83333C19.705 2.83333 20.7497 3.878 20.7497 5.16667ZM13.7497 5.16667C13.7497 7.744 15.8391 9.83333 18.4163 9.83333C20.9936 9.83333 23.083 7.744 23.083 5.16667C23.083 2.58934 20.9936 0.5 18.4163 0.5C15.8391 0.5 13.7497 2.58934 13.7497 5.16667ZM21.333 16.25C21.333 14.6392 20.0272 13.3333 18.4163 13.3333C16.8055 13.3333 15.4997 14.6392 15.4997 16.25V19.1667H21.333V16.25ZM13.1663 19.1667V16.25C13.1663 13.3505 15.5168 11 18.4163 11C21.3159 11 23.6663 13.3505 23.6663 16.25V21.5H13.1663V19.1667Z" fill="white" fill-opacity="0.6"/>
</svg>
