<svg width="16" height="22" viewBox="0 0 16 22" fill="none" xmlns="http://www.w3.org/2000/svg">
<path d="M0 21.5C0 17.0817 3.58172 13.5 8 13.5C12.4183 13.5 16 17.0817 16 21.5H14C14 18.1863 11.3137 15.5 8 15.5C4.68629 15.5 2 18.1863 2 21.5H0ZM8 12.5C4.685 12.5 2 9.815 2 6.5C2 3.185 4.685 0.5 8 0.5C11.315 0.5 14 3.185 14 6.5C14 9.815 11.315 12.5 8 12.5ZM8 10.5C10.21 10.5 12 8.71 12 6.5C12 4.29 10.21 2.5 8 2.5C5.79 2.5 4 4.29 4 6.5C4 8.71 5.79 10.5 8 10.5Z" fill="white" fill-opacity="0.6"/>
</svg>
