<svg width="20" height="22" viewBox="0 0 20 22" fill="none" xmlns="http://www.w3.org/2000/svg">
<path d="M1.21299 2.23108L13.2963 0.504891C13.5591 0.467355 13.8025 0.64994 13.8401 0.912711C13.8432 0.935222 13.8449 0.957936 13.8449 0.980679V21.0194C13.8449 21.2848 13.6296 21.5 13.3643 21.5C13.3415 21.5 13.3188 21.4984 13.2963 21.4951L1.21299 19.7689C0.739437 19.7013 0.387695 19.2957 0.387695 18.8174V3.18265C0.387695 2.70429 0.739437 2.29873 1.21299 2.23108ZM2.31015 4.01632V17.9837L11.9224 19.3569V2.64313L2.31015 4.01632ZM14.8061 17.7286H17.6898V4.27143H14.8061V2.34898H18.651C19.1819 2.34898 19.6122 2.77934 19.6122 3.3102V18.6899C19.6122 19.2207 19.1819 19.6511 18.651 19.6511H14.8061V17.7286ZM8.26975 11L10.9612 14.8449H8.65424L7.11628 12.6479L5.57831 14.8449H3.27137L5.96281 11L3.27137 7.15511H5.57831L7.11628 9.35221L8.65424 7.15511H10.9612L8.26975 11Z" fill="white" fill-opacity="0.6"/>
</svg>
